%TF.GenerationSoftware,KiCad,Pcbnew,7.0.1*%
%TF.CreationDate,2023-04-20T16:33:22-05:00*%
%TF.ProjectId,pic32mx,70696333-326d-4782-9e6b-696361645f70,rev?*%
%TF.SameCoordinates,Original*%
%TF.FileFunction,Legend,Top*%
%TF.FilePolarity,Positive*%
%FSLAX46Y46*%
G04 Gerber Fmt 4.6, Leading zero omitted, Abs format (unit mm)*
G04 Created by KiCad (PCBNEW 7.0.1) date 2023-04-20 16:33:22*
%MOMM*%
%LPD*%
G01*
G04 APERTURE LIST*
%ADD10C,0.300000*%
%ADD11C,0.150000*%
%ADD12C,0.100000*%
%ADD13C,0.120000*%
G04 APERTURE END LIST*
D10*
X101357142Y-52416428D02*
X101357142Y-50916428D01*
X102214285Y-52416428D02*
X101571428Y-51559285D01*
X102214285Y-50916428D02*
X101357142Y-51773571D01*
X103428571Y-52345000D02*
X103285714Y-52416428D01*
X103285714Y-52416428D02*
X103000000Y-52416428D01*
X103000000Y-52416428D02*
X102857142Y-52345000D01*
X102857142Y-52345000D02*
X102785714Y-52202142D01*
X102785714Y-52202142D02*
X102785714Y-51630714D01*
X102785714Y-51630714D02*
X102857142Y-51487857D01*
X102857142Y-51487857D02*
X103000000Y-51416428D01*
X103000000Y-51416428D02*
X103285714Y-51416428D01*
X103285714Y-51416428D02*
X103428571Y-51487857D01*
X103428571Y-51487857D02*
X103500000Y-51630714D01*
X103500000Y-51630714D02*
X103500000Y-51773571D01*
X103500000Y-51773571D02*
X102785714Y-51916428D01*
X103999999Y-51416428D02*
X104357142Y-52416428D01*
X104357142Y-52416428D02*
X104714285Y-51416428D01*
X105285713Y-52416428D02*
X105285713Y-51416428D01*
X105285713Y-50916428D02*
X105214285Y-50987857D01*
X105214285Y-50987857D02*
X105285713Y-51059285D01*
X105285713Y-51059285D02*
X105357142Y-50987857D01*
X105357142Y-50987857D02*
X105285713Y-50916428D01*
X105285713Y-50916428D02*
X105285713Y-51059285D01*
X105999999Y-51416428D02*
X105999999Y-52416428D01*
X105999999Y-51559285D02*
X106071428Y-51487857D01*
X106071428Y-51487857D02*
X106214285Y-51416428D01*
X106214285Y-51416428D02*
X106428571Y-51416428D01*
X106428571Y-51416428D02*
X106571428Y-51487857D01*
X106571428Y-51487857D02*
X106642857Y-51630714D01*
X106642857Y-51630714D02*
X106642857Y-52416428D01*
X108999999Y-51630714D02*
X109214285Y-51702142D01*
X109214285Y-51702142D02*
X109285714Y-51773571D01*
X109285714Y-51773571D02*
X109357142Y-51916428D01*
X109357142Y-51916428D02*
X109357142Y-52130714D01*
X109357142Y-52130714D02*
X109285714Y-52273571D01*
X109285714Y-52273571D02*
X109214285Y-52345000D01*
X109214285Y-52345000D02*
X109071428Y-52416428D01*
X109071428Y-52416428D02*
X108499999Y-52416428D01*
X108499999Y-52416428D02*
X108499999Y-50916428D01*
X108499999Y-50916428D02*
X108999999Y-50916428D01*
X108999999Y-50916428D02*
X109142857Y-50987857D01*
X109142857Y-50987857D02*
X109214285Y-51059285D01*
X109214285Y-51059285D02*
X109285714Y-51202142D01*
X109285714Y-51202142D02*
X109285714Y-51345000D01*
X109285714Y-51345000D02*
X109214285Y-51487857D01*
X109214285Y-51487857D02*
X109142857Y-51559285D01*
X109142857Y-51559285D02*
X108999999Y-51630714D01*
X108999999Y-51630714D02*
X108499999Y-51630714D01*
X110571428Y-52345000D02*
X110428571Y-52416428D01*
X110428571Y-52416428D02*
X110142857Y-52416428D01*
X110142857Y-52416428D02*
X109999999Y-52345000D01*
X109999999Y-52345000D02*
X109928571Y-52202142D01*
X109928571Y-52202142D02*
X109928571Y-51630714D01*
X109928571Y-51630714D02*
X109999999Y-51487857D01*
X109999999Y-51487857D02*
X110142857Y-51416428D01*
X110142857Y-51416428D02*
X110428571Y-51416428D01*
X110428571Y-51416428D02*
X110571428Y-51487857D01*
X110571428Y-51487857D02*
X110642857Y-51630714D01*
X110642857Y-51630714D02*
X110642857Y-51773571D01*
X110642857Y-51773571D02*
X109928571Y-51916428D01*
X111928571Y-52345000D02*
X111785713Y-52416428D01*
X111785713Y-52416428D02*
X111499999Y-52416428D01*
X111499999Y-52416428D02*
X111357142Y-52345000D01*
X111357142Y-52345000D02*
X111285713Y-52273571D01*
X111285713Y-52273571D02*
X111214285Y-52130714D01*
X111214285Y-52130714D02*
X111214285Y-51702142D01*
X111214285Y-51702142D02*
X111285713Y-51559285D01*
X111285713Y-51559285D02*
X111357142Y-51487857D01*
X111357142Y-51487857D02*
X111499999Y-51416428D01*
X111499999Y-51416428D02*
X111785713Y-51416428D01*
X111785713Y-51416428D02*
X111928571Y-51487857D01*
X112571427Y-52416428D02*
X112571427Y-50916428D01*
X112714285Y-51845000D02*
X113142856Y-52416428D01*
X113142856Y-51416428D02*
X112571427Y-51987857D01*
D11*
%TO.C,J4*%
X146256666Y-59632619D02*
X146256666Y-60346904D01*
X146256666Y-60346904D02*
X146209047Y-60489761D01*
X146209047Y-60489761D02*
X146113809Y-60585000D01*
X146113809Y-60585000D02*
X145970952Y-60632619D01*
X145970952Y-60632619D02*
X145875714Y-60632619D01*
X147161428Y-59965952D02*
X147161428Y-60632619D01*
X146923333Y-59585000D02*
X146685238Y-60299285D01*
X146685238Y-60299285D02*
X147304285Y-60299285D01*
%TO.C,R2*%
X115043333Y-74342619D02*
X114710000Y-73866428D01*
X114471905Y-74342619D02*
X114471905Y-73342619D01*
X114471905Y-73342619D02*
X114852857Y-73342619D01*
X114852857Y-73342619D02*
X114948095Y-73390238D01*
X114948095Y-73390238D02*
X114995714Y-73437857D01*
X114995714Y-73437857D02*
X115043333Y-73533095D01*
X115043333Y-73533095D02*
X115043333Y-73675952D01*
X115043333Y-73675952D02*
X114995714Y-73771190D01*
X114995714Y-73771190D02*
X114948095Y-73818809D01*
X114948095Y-73818809D02*
X114852857Y-73866428D01*
X114852857Y-73866428D02*
X114471905Y-73866428D01*
X115424286Y-73437857D02*
X115471905Y-73390238D01*
X115471905Y-73390238D02*
X115567143Y-73342619D01*
X115567143Y-73342619D02*
X115805238Y-73342619D01*
X115805238Y-73342619D02*
X115900476Y-73390238D01*
X115900476Y-73390238D02*
X115948095Y-73437857D01*
X115948095Y-73437857D02*
X115995714Y-73533095D01*
X115995714Y-73533095D02*
X115995714Y-73628333D01*
X115995714Y-73628333D02*
X115948095Y-73771190D01*
X115948095Y-73771190D02*
X115376667Y-74342619D01*
X115376667Y-74342619D02*
X115995714Y-74342619D01*
%TO.C,R1*%
X115023333Y-76542619D02*
X114690000Y-76066428D01*
X114451905Y-76542619D02*
X114451905Y-75542619D01*
X114451905Y-75542619D02*
X114832857Y-75542619D01*
X114832857Y-75542619D02*
X114928095Y-75590238D01*
X114928095Y-75590238D02*
X114975714Y-75637857D01*
X114975714Y-75637857D02*
X115023333Y-75733095D01*
X115023333Y-75733095D02*
X115023333Y-75875952D01*
X115023333Y-75875952D02*
X114975714Y-75971190D01*
X114975714Y-75971190D02*
X114928095Y-76018809D01*
X114928095Y-76018809D02*
X114832857Y-76066428D01*
X114832857Y-76066428D02*
X114451905Y-76066428D01*
X115975714Y-76542619D02*
X115404286Y-76542619D01*
X115690000Y-76542619D02*
X115690000Y-75542619D01*
X115690000Y-75542619D02*
X115594762Y-75685476D01*
X115594762Y-75685476D02*
X115499524Y-75780714D01*
X115499524Y-75780714D02*
X115404286Y-75828333D01*
D12*
%TO.C,SW1*%
X110206667Y-81415000D02*
X110349524Y-81462619D01*
X110349524Y-81462619D02*
X110587619Y-81462619D01*
X110587619Y-81462619D02*
X110682857Y-81415000D01*
X110682857Y-81415000D02*
X110730476Y-81367380D01*
X110730476Y-81367380D02*
X110778095Y-81272142D01*
X110778095Y-81272142D02*
X110778095Y-81176904D01*
X110778095Y-81176904D02*
X110730476Y-81081666D01*
X110730476Y-81081666D02*
X110682857Y-81034047D01*
X110682857Y-81034047D02*
X110587619Y-80986428D01*
X110587619Y-80986428D02*
X110397143Y-80938809D01*
X110397143Y-80938809D02*
X110301905Y-80891190D01*
X110301905Y-80891190D02*
X110254286Y-80843571D01*
X110254286Y-80843571D02*
X110206667Y-80748333D01*
X110206667Y-80748333D02*
X110206667Y-80653095D01*
X110206667Y-80653095D02*
X110254286Y-80557857D01*
X110254286Y-80557857D02*
X110301905Y-80510238D01*
X110301905Y-80510238D02*
X110397143Y-80462619D01*
X110397143Y-80462619D02*
X110635238Y-80462619D01*
X110635238Y-80462619D02*
X110778095Y-80510238D01*
X111111429Y-80462619D02*
X111349524Y-81462619D01*
X111349524Y-81462619D02*
X111540000Y-80748333D01*
X111540000Y-80748333D02*
X111730476Y-81462619D01*
X111730476Y-81462619D02*
X111968572Y-80462619D01*
X112873333Y-81462619D02*
X112301905Y-81462619D01*
X112587619Y-81462619D02*
X112587619Y-80462619D01*
X112587619Y-80462619D02*
X112492381Y-80605476D01*
X112492381Y-80605476D02*
X112397143Y-80700714D01*
X112397143Y-80700714D02*
X112301905Y-80748333D01*
D11*
%TO.C,R3*%
X111833333Y-79542619D02*
X111500000Y-79066428D01*
X111261905Y-79542619D02*
X111261905Y-78542619D01*
X111261905Y-78542619D02*
X111642857Y-78542619D01*
X111642857Y-78542619D02*
X111738095Y-78590238D01*
X111738095Y-78590238D02*
X111785714Y-78637857D01*
X111785714Y-78637857D02*
X111833333Y-78733095D01*
X111833333Y-78733095D02*
X111833333Y-78875952D01*
X111833333Y-78875952D02*
X111785714Y-78971190D01*
X111785714Y-78971190D02*
X111738095Y-79018809D01*
X111738095Y-79018809D02*
X111642857Y-79066428D01*
X111642857Y-79066428D02*
X111261905Y-79066428D01*
X112166667Y-78542619D02*
X112785714Y-78542619D01*
X112785714Y-78542619D02*
X112452381Y-78923571D01*
X112452381Y-78923571D02*
X112595238Y-78923571D01*
X112595238Y-78923571D02*
X112690476Y-78971190D01*
X112690476Y-78971190D02*
X112738095Y-79018809D01*
X112738095Y-79018809D02*
X112785714Y-79114047D01*
X112785714Y-79114047D02*
X112785714Y-79352142D01*
X112785714Y-79352142D02*
X112738095Y-79447380D01*
X112738095Y-79447380D02*
X112690476Y-79495000D01*
X112690476Y-79495000D02*
X112595238Y-79542619D01*
X112595238Y-79542619D02*
X112309524Y-79542619D01*
X112309524Y-79542619D02*
X112214286Y-79495000D01*
X112214286Y-79495000D02*
X112166667Y-79447380D01*
%TO.C,J1*%
X100152619Y-97833333D02*
X100866904Y-97833333D01*
X100866904Y-97833333D02*
X101009761Y-97880952D01*
X101009761Y-97880952D02*
X101105000Y-97976190D01*
X101105000Y-97976190D02*
X101152619Y-98119047D01*
X101152619Y-98119047D02*
X101152619Y-98214285D01*
X101152619Y-96833333D02*
X101152619Y-97404761D01*
X101152619Y-97119047D02*
X100152619Y-97119047D01*
X100152619Y-97119047D02*
X100295476Y-97214285D01*
X100295476Y-97214285D02*
X100390714Y-97309523D01*
X100390714Y-97309523D02*
X100438333Y-97404761D01*
D12*
%TO.C,SW2*%
X117733332Y-59785000D02*
X117590475Y-59737380D01*
X117590475Y-59737380D02*
X117352380Y-59737380D01*
X117352380Y-59737380D02*
X117257142Y-59785000D01*
X117257142Y-59785000D02*
X117209523Y-59832619D01*
X117209523Y-59832619D02*
X117161904Y-59927857D01*
X117161904Y-59927857D02*
X117161904Y-60023095D01*
X117161904Y-60023095D02*
X117209523Y-60118333D01*
X117209523Y-60118333D02*
X117257142Y-60165952D01*
X117257142Y-60165952D02*
X117352380Y-60213571D01*
X117352380Y-60213571D02*
X117542856Y-60261190D01*
X117542856Y-60261190D02*
X117638094Y-60308809D01*
X117638094Y-60308809D02*
X117685713Y-60356428D01*
X117685713Y-60356428D02*
X117733332Y-60451666D01*
X117733332Y-60451666D02*
X117733332Y-60546904D01*
X117733332Y-60546904D02*
X117685713Y-60642142D01*
X117685713Y-60642142D02*
X117638094Y-60689761D01*
X117638094Y-60689761D02*
X117542856Y-60737380D01*
X117542856Y-60737380D02*
X117304761Y-60737380D01*
X117304761Y-60737380D02*
X117161904Y-60689761D01*
X116828570Y-60737380D02*
X116590475Y-59737380D01*
X116590475Y-59737380D02*
X116399999Y-60451666D01*
X116399999Y-60451666D02*
X116209523Y-59737380D01*
X116209523Y-59737380D02*
X115971428Y-60737380D01*
X115638094Y-60642142D02*
X115590475Y-60689761D01*
X115590475Y-60689761D02*
X115495237Y-60737380D01*
X115495237Y-60737380D02*
X115257142Y-60737380D01*
X115257142Y-60737380D02*
X115161904Y-60689761D01*
X115161904Y-60689761D02*
X115114285Y-60642142D01*
X115114285Y-60642142D02*
X115066666Y-60546904D01*
X115066666Y-60546904D02*
X115066666Y-60451666D01*
X115066666Y-60451666D02*
X115114285Y-60308809D01*
X115114285Y-60308809D02*
X115685713Y-59737380D01*
X115685713Y-59737380D02*
X115066666Y-59737380D01*
D11*
%TO.C,C4*%
X122083333Y-96787380D02*
X122035714Y-96835000D01*
X122035714Y-96835000D02*
X121892857Y-96882619D01*
X121892857Y-96882619D02*
X121797619Y-96882619D01*
X121797619Y-96882619D02*
X121654762Y-96835000D01*
X121654762Y-96835000D02*
X121559524Y-96739761D01*
X121559524Y-96739761D02*
X121511905Y-96644523D01*
X121511905Y-96644523D02*
X121464286Y-96454047D01*
X121464286Y-96454047D02*
X121464286Y-96311190D01*
X121464286Y-96311190D02*
X121511905Y-96120714D01*
X121511905Y-96120714D02*
X121559524Y-96025476D01*
X121559524Y-96025476D02*
X121654762Y-95930238D01*
X121654762Y-95930238D02*
X121797619Y-95882619D01*
X121797619Y-95882619D02*
X121892857Y-95882619D01*
X121892857Y-95882619D02*
X122035714Y-95930238D01*
X122035714Y-95930238D02*
X122083333Y-95977857D01*
X122940476Y-96215952D02*
X122940476Y-96882619D01*
X122702381Y-95835000D02*
X122464286Y-96549285D01*
X122464286Y-96549285D02*
X123083333Y-96549285D01*
%TO.C,J2*%
X131307619Y-97833333D02*
X132021904Y-97833333D01*
X132021904Y-97833333D02*
X132164761Y-97880952D01*
X132164761Y-97880952D02*
X132260000Y-97976190D01*
X132260000Y-97976190D02*
X132307619Y-98119047D01*
X132307619Y-98119047D02*
X132307619Y-98214285D01*
X131402857Y-97404761D02*
X131355238Y-97357142D01*
X131355238Y-97357142D02*
X131307619Y-97261904D01*
X131307619Y-97261904D02*
X131307619Y-97023809D01*
X131307619Y-97023809D02*
X131355238Y-96928571D01*
X131355238Y-96928571D02*
X131402857Y-96880952D01*
X131402857Y-96880952D02*
X131498095Y-96833333D01*
X131498095Y-96833333D02*
X131593333Y-96833333D01*
X131593333Y-96833333D02*
X131736190Y-96880952D01*
X131736190Y-96880952D02*
X132307619Y-97452380D01*
X132307619Y-97452380D02*
X132307619Y-96833333D01*
%TO.C,D3*%
X130991905Y-90452619D02*
X130991905Y-89452619D01*
X130991905Y-89452619D02*
X131230000Y-89452619D01*
X131230000Y-89452619D02*
X131372857Y-89500238D01*
X131372857Y-89500238D02*
X131468095Y-89595476D01*
X131468095Y-89595476D02*
X131515714Y-89690714D01*
X131515714Y-89690714D02*
X131563333Y-89881190D01*
X131563333Y-89881190D02*
X131563333Y-90024047D01*
X131563333Y-90024047D02*
X131515714Y-90214523D01*
X131515714Y-90214523D02*
X131468095Y-90309761D01*
X131468095Y-90309761D02*
X131372857Y-90405000D01*
X131372857Y-90405000D02*
X131230000Y-90452619D01*
X131230000Y-90452619D02*
X130991905Y-90452619D01*
X131896667Y-89452619D02*
X132515714Y-89452619D01*
X132515714Y-89452619D02*
X132182381Y-89833571D01*
X132182381Y-89833571D02*
X132325238Y-89833571D01*
X132325238Y-89833571D02*
X132420476Y-89881190D01*
X132420476Y-89881190D02*
X132468095Y-89928809D01*
X132468095Y-89928809D02*
X132515714Y-90024047D01*
X132515714Y-90024047D02*
X132515714Y-90262142D01*
X132515714Y-90262142D02*
X132468095Y-90357380D01*
X132468095Y-90357380D02*
X132420476Y-90405000D01*
X132420476Y-90405000D02*
X132325238Y-90452619D01*
X132325238Y-90452619D02*
X132039524Y-90452619D01*
X132039524Y-90452619D02*
X131944286Y-90405000D01*
X131944286Y-90405000D02*
X131896667Y-90357380D01*
%TO.C,C3*%
X138183333Y-51547380D02*
X138135714Y-51595000D01*
X138135714Y-51595000D02*
X137992857Y-51642619D01*
X137992857Y-51642619D02*
X137897619Y-51642619D01*
X137897619Y-51642619D02*
X137754762Y-51595000D01*
X137754762Y-51595000D02*
X137659524Y-51499761D01*
X137659524Y-51499761D02*
X137611905Y-51404523D01*
X137611905Y-51404523D02*
X137564286Y-51214047D01*
X137564286Y-51214047D02*
X137564286Y-51071190D01*
X137564286Y-51071190D02*
X137611905Y-50880714D01*
X137611905Y-50880714D02*
X137659524Y-50785476D01*
X137659524Y-50785476D02*
X137754762Y-50690238D01*
X137754762Y-50690238D02*
X137897619Y-50642619D01*
X137897619Y-50642619D02*
X137992857Y-50642619D01*
X137992857Y-50642619D02*
X138135714Y-50690238D01*
X138135714Y-50690238D02*
X138183333Y-50737857D01*
X138516667Y-50642619D02*
X139135714Y-50642619D01*
X139135714Y-50642619D02*
X138802381Y-51023571D01*
X138802381Y-51023571D02*
X138945238Y-51023571D01*
X138945238Y-51023571D02*
X139040476Y-51071190D01*
X139040476Y-51071190D02*
X139088095Y-51118809D01*
X139088095Y-51118809D02*
X139135714Y-51214047D01*
X139135714Y-51214047D02*
X139135714Y-51452142D01*
X139135714Y-51452142D02*
X139088095Y-51547380D01*
X139088095Y-51547380D02*
X139040476Y-51595000D01*
X139040476Y-51595000D02*
X138945238Y-51642619D01*
X138945238Y-51642619D02*
X138659524Y-51642619D01*
X138659524Y-51642619D02*
X138564286Y-51595000D01*
X138564286Y-51595000D02*
X138516667Y-51547380D01*
%TO.C,C1*%
X113683333Y-74187380D02*
X113635714Y-74235000D01*
X113635714Y-74235000D02*
X113492857Y-74282619D01*
X113492857Y-74282619D02*
X113397619Y-74282619D01*
X113397619Y-74282619D02*
X113254762Y-74235000D01*
X113254762Y-74235000D02*
X113159524Y-74139761D01*
X113159524Y-74139761D02*
X113111905Y-74044523D01*
X113111905Y-74044523D02*
X113064286Y-73854047D01*
X113064286Y-73854047D02*
X113064286Y-73711190D01*
X113064286Y-73711190D02*
X113111905Y-73520714D01*
X113111905Y-73520714D02*
X113159524Y-73425476D01*
X113159524Y-73425476D02*
X113254762Y-73330238D01*
X113254762Y-73330238D02*
X113397619Y-73282619D01*
X113397619Y-73282619D02*
X113492857Y-73282619D01*
X113492857Y-73282619D02*
X113635714Y-73330238D01*
X113635714Y-73330238D02*
X113683333Y-73377857D01*
X114635714Y-74282619D02*
X114064286Y-74282619D01*
X114350000Y-74282619D02*
X114350000Y-73282619D01*
X114350000Y-73282619D02*
X114254762Y-73425476D01*
X114254762Y-73425476D02*
X114159524Y-73520714D01*
X114159524Y-73520714D02*
X114064286Y-73568333D01*
%TO.C,SW3*%
X121135000Y-98833332D02*
X121182619Y-98690475D01*
X121182619Y-98690475D02*
X121182619Y-98452380D01*
X121182619Y-98452380D02*
X121135000Y-98357142D01*
X121135000Y-98357142D02*
X121087380Y-98309523D01*
X121087380Y-98309523D02*
X120992142Y-98261904D01*
X120992142Y-98261904D02*
X120896904Y-98261904D01*
X120896904Y-98261904D02*
X120801666Y-98309523D01*
X120801666Y-98309523D02*
X120754047Y-98357142D01*
X120754047Y-98357142D02*
X120706428Y-98452380D01*
X120706428Y-98452380D02*
X120658809Y-98642856D01*
X120658809Y-98642856D02*
X120611190Y-98738094D01*
X120611190Y-98738094D02*
X120563571Y-98785713D01*
X120563571Y-98785713D02*
X120468333Y-98833332D01*
X120468333Y-98833332D02*
X120373095Y-98833332D01*
X120373095Y-98833332D02*
X120277857Y-98785713D01*
X120277857Y-98785713D02*
X120230238Y-98738094D01*
X120230238Y-98738094D02*
X120182619Y-98642856D01*
X120182619Y-98642856D02*
X120182619Y-98404761D01*
X120182619Y-98404761D02*
X120230238Y-98261904D01*
X120182619Y-97928570D02*
X121182619Y-97690475D01*
X121182619Y-97690475D02*
X120468333Y-97499999D01*
X120468333Y-97499999D02*
X121182619Y-97309523D01*
X121182619Y-97309523D02*
X120182619Y-97071428D01*
X120182619Y-96785713D02*
X120182619Y-96166666D01*
X120182619Y-96166666D02*
X120563571Y-96499999D01*
X120563571Y-96499999D02*
X120563571Y-96357142D01*
X120563571Y-96357142D02*
X120611190Y-96261904D01*
X120611190Y-96261904D02*
X120658809Y-96214285D01*
X120658809Y-96214285D02*
X120754047Y-96166666D01*
X120754047Y-96166666D02*
X120992142Y-96166666D01*
X120992142Y-96166666D02*
X121087380Y-96214285D01*
X121087380Y-96214285D02*
X121135000Y-96261904D01*
X121135000Y-96261904D02*
X121182619Y-96357142D01*
X121182619Y-96357142D02*
X121182619Y-96642856D01*
X121182619Y-96642856D02*
X121135000Y-96738094D01*
X121135000Y-96738094D02*
X121087380Y-96785713D01*
%TO.C,D1*%
X107241905Y-80472619D02*
X107241905Y-79472619D01*
X107241905Y-79472619D02*
X107480000Y-79472619D01*
X107480000Y-79472619D02*
X107622857Y-79520238D01*
X107622857Y-79520238D02*
X107718095Y-79615476D01*
X107718095Y-79615476D02*
X107765714Y-79710714D01*
X107765714Y-79710714D02*
X107813333Y-79901190D01*
X107813333Y-79901190D02*
X107813333Y-80044047D01*
X107813333Y-80044047D02*
X107765714Y-80234523D01*
X107765714Y-80234523D02*
X107718095Y-80329761D01*
X107718095Y-80329761D02*
X107622857Y-80425000D01*
X107622857Y-80425000D02*
X107480000Y-80472619D01*
X107480000Y-80472619D02*
X107241905Y-80472619D01*
X108765714Y-80472619D02*
X108194286Y-80472619D01*
X108480000Y-80472619D02*
X108480000Y-79472619D01*
X108480000Y-79472619D02*
X108384762Y-79615476D01*
X108384762Y-79615476D02*
X108289524Y-79710714D01*
X108289524Y-79710714D02*
X108194286Y-79758333D01*
%TO.C,J3*%
X103076666Y-59632619D02*
X103076666Y-60346904D01*
X103076666Y-60346904D02*
X103029047Y-60489761D01*
X103029047Y-60489761D02*
X102933809Y-60585000D01*
X102933809Y-60585000D02*
X102790952Y-60632619D01*
X102790952Y-60632619D02*
X102695714Y-60632619D01*
X103457619Y-59632619D02*
X104076666Y-59632619D01*
X104076666Y-59632619D02*
X103743333Y-60013571D01*
X103743333Y-60013571D02*
X103886190Y-60013571D01*
X103886190Y-60013571D02*
X103981428Y-60061190D01*
X103981428Y-60061190D02*
X104029047Y-60108809D01*
X104029047Y-60108809D02*
X104076666Y-60204047D01*
X104076666Y-60204047D02*
X104076666Y-60442142D01*
X104076666Y-60442142D02*
X104029047Y-60537380D01*
X104029047Y-60537380D02*
X103981428Y-60585000D01*
X103981428Y-60585000D02*
X103886190Y-60632619D01*
X103886190Y-60632619D02*
X103600476Y-60632619D01*
X103600476Y-60632619D02*
X103505238Y-60585000D01*
X103505238Y-60585000D02*
X103457619Y-60537380D01*
%TO.C,C6*%
X139683333Y-87097380D02*
X139635714Y-87145000D01*
X139635714Y-87145000D02*
X139492857Y-87192619D01*
X139492857Y-87192619D02*
X139397619Y-87192619D01*
X139397619Y-87192619D02*
X139254762Y-87145000D01*
X139254762Y-87145000D02*
X139159524Y-87049761D01*
X139159524Y-87049761D02*
X139111905Y-86954523D01*
X139111905Y-86954523D02*
X139064286Y-86764047D01*
X139064286Y-86764047D02*
X139064286Y-86621190D01*
X139064286Y-86621190D02*
X139111905Y-86430714D01*
X139111905Y-86430714D02*
X139159524Y-86335476D01*
X139159524Y-86335476D02*
X139254762Y-86240238D01*
X139254762Y-86240238D02*
X139397619Y-86192619D01*
X139397619Y-86192619D02*
X139492857Y-86192619D01*
X139492857Y-86192619D02*
X139635714Y-86240238D01*
X139635714Y-86240238D02*
X139683333Y-86287857D01*
X140540476Y-86192619D02*
X140350000Y-86192619D01*
X140350000Y-86192619D02*
X140254762Y-86240238D01*
X140254762Y-86240238D02*
X140207143Y-86287857D01*
X140207143Y-86287857D02*
X140111905Y-86430714D01*
X140111905Y-86430714D02*
X140064286Y-86621190D01*
X140064286Y-86621190D02*
X140064286Y-87002142D01*
X140064286Y-87002142D02*
X140111905Y-87097380D01*
X140111905Y-87097380D02*
X140159524Y-87145000D01*
X140159524Y-87145000D02*
X140254762Y-87192619D01*
X140254762Y-87192619D02*
X140445238Y-87192619D01*
X140445238Y-87192619D02*
X140540476Y-87145000D01*
X140540476Y-87145000D02*
X140588095Y-87097380D01*
X140588095Y-87097380D02*
X140635714Y-87002142D01*
X140635714Y-87002142D02*
X140635714Y-86764047D01*
X140635714Y-86764047D02*
X140588095Y-86668809D01*
X140588095Y-86668809D02*
X140540476Y-86621190D01*
X140540476Y-86621190D02*
X140445238Y-86573571D01*
X140445238Y-86573571D02*
X140254762Y-86573571D01*
X140254762Y-86573571D02*
X140159524Y-86621190D01*
X140159524Y-86621190D02*
X140111905Y-86668809D01*
X140111905Y-86668809D02*
X140064286Y-86764047D01*
%TO.C,C5*%
X139683333Y-90547380D02*
X139635714Y-90595000D01*
X139635714Y-90595000D02*
X139492857Y-90642619D01*
X139492857Y-90642619D02*
X139397619Y-90642619D01*
X139397619Y-90642619D02*
X139254762Y-90595000D01*
X139254762Y-90595000D02*
X139159524Y-90499761D01*
X139159524Y-90499761D02*
X139111905Y-90404523D01*
X139111905Y-90404523D02*
X139064286Y-90214047D01*
X139064286Y-90214047D02*
X139064286Y-90071190D01*
X139064286Y-90071190D02*
X139111905Y-89880714D01*
X139111905Y-89880714D02*
X139159524Y-89785476D01*
X139159524Y-89785476D02*
X139254762Y-89690238D01*
X139254762Y-89690238D02*
X139397619Y-89642619D01*
X139397619Y-89642619D02*
X139492857Y-89642619D01*
X139492857Y-89642619D02*
X139635714Y-89690238D01*
X139635714Y-89690238D02*
X139683333Y-89737857D01*
X140588095Y-89642619D02*
X140111905Y-89642619D01*
X140111905Y-89642619D02*
X140064286Y-90118809D01*
X140064286Y-90118809D02*
X140111905Y-90071190D01*
X140111905Y-90071190D02*
X140207143Y-90023571D01*
X140207143Y-90023571D02*
X140445238Y-90023571D01*
X140445238Y-90023571D02*
X140540476Y-90071190D01*
X140540476Y-90071190D02*
X140588095Y-90118809D01*
X140588095Y-90118809D02*
X140635714Y-90214047D01*
X140635714Y-90214047D02*
X140635714Y-90452142D01*
X140635714Y-90452142D02*
X140588095Y-90547380D01*
X140588095Y-90547380D02*
X140540476Y-90595000D01*
X140540476Y-90595000D02*
X140445238Y-90642619D01*
X140445238Y-90642619D02*
X140207143Y-90642619D01*
X140207143Y-90642619D02*
X140111905Y-90595000D01*
X140111905Y-90595000D02*
X140064286Y-90547380D01*
%TO.C,R5*%
X112023333Y-96382619D02*
X111690000Y-95906428D01*
X111451905Y-96382619D02*
X111451905Y-95382619D01*
X111451905Y-95382619D02*
X111832857Y-95382619D01*
X111832857Y-95382619D02*
X111928095Y-95430238D01*
X111928095Y-95430238D02*
X111975714Y-95477857D01*
X111975714Y-95477857D02*
X112023333Y-95573095D01*
X112023333Y-95573095D02*
X112023333Y-95715952D01*
X112023333Y-95715952D02*
X111975714Y-95811190D01*
X111975714Y-95811190D02*
X111928095Y-95858809D01*
X111928095Y-95858809D02*
X111832857Y-95906428D01*
X111832857Y-95906428D02*
X111451905Y-95906428D01*
X112928095Y-95382619D02*
X112451905Y-95382619D01*
X112451905Y-95382619D02*
X112404286Y-95858809D01*
X112404286Y-95858809D02*
X112451905Y-95811190D01*
X112451905Y-95811190D02*
X112547143Y-95763571D01*
X112547143Y-95763571D02*
X112785238Y-95763571D01*
X112785238Y-95763571D02*
X112880476Y-95811190D01*
X112880476Y-95811190D02*
X112928095Y-95858809D01*
X112928095Y-95858809D02*
X112975714Y-95954047D01*
X112975714Y-95954047D02*
X112975714Y-96192142D01*
X112975714Y-96192142D02*
X112928095Y-96287380D01*
X112928095Y-96287380D02*
X112880476Y-96335000D01*
X112880476Y-96335000D02*
X112785238Y-96382619D01*
X112785238Y-96382619D02*
X112547143Y-96382619D01*
X112547143Y-96382619D02*
X112451905Y-96335000D01*
X112451905Y-96335000D02*
X112404286Y-96287380D01*
%TO.C,D2*%
X107191905Y-77872619D02*
X107191905Y-76872619D01*
X107191905Y-76872619D02*
X107430000Y-76872619D01*
X107430000Y-76872619D02*
X107572857Y-76920238D01*
X107572857Y-76920238D02*
X107668095Y-77015476D01*
X107668095Y-77015476D02*
X107715714Y-77110714D01*
X107715714Y-77110714D02*
X107763333Y-77301190D01*
X107763333Y-77301190D02*
X107763333Y-77444047D01*
X107763333Y-77444047D02*
X107715714Y-77634523D01*
X107715714Y-77634523D02*
X107668095Y-77729761D01*
X107668095Y-77729761D02*
X107572857Y-77825000D01*
X107572857Y-77825000D02*
X107430000Y-77872619D01*
X107430000Y-77872619D02*
X107191905Y-77872619D01*
X108144286Y-76967857D02*
X108191905Y-76920238D01*
X108191905Y-76920238D02*
X108287143Y-76872619D01*
X108287143Y-76872619D02*
X108525238Y-76872619D01*
X108525238Y-76872619D02*
X108620476Y-76920238D01*
X108620476Y-76920238D02*
X108668095Y-76967857D01*
X108668095Y-76967857D02*
X108715714Y-77063095D01*
X108715714Y-77063095D02*
X108715714Y-77158333D01*
X108715714Y-77158333D02*
X108668095Y-77301190D01*
X108668095Y-77301190D02*
X108096667Y-77872619D01*
X108096667Y-77872619D02*
X108715714Y-77872619D01*
%TO.C,PIC32MX170F256B1*%
X117738095Y-50632619D02*
X117738095Y-49632619D01*
X117738095Y-49632619D02*
X118119047Y-49632619D01*
X118119047Y-49632619D02*
X118214285Y-49680238D01*
X118214285Y-49680238D02*
X118261904Y-49727857D01*
X118261904Y-49727857D02*
X118309523Y-49823095D01*
X118309523Y-49823095D02*
X118309523Y-49965952D01*
X118309523Y-49965952D02*
X118261904Y-50061190D01*
X118261904Y-50061190D02*
X118214285Y-50108809D01*
X118214285Y-50108809D02*
X118119047Y-50156428D01*
X118119047Y-50156428D02*
X117738095Y-50156428D01*
X118738095Y-50632619D02*
X118738095Y-49632619D01*
X119785713Y-50537380D02*
X119738094Y-50585000D01*
X119738094Y-50585000D02*
X119595237Y-50632619D01*
X119595237Y-50632619D02*
X119499999Y-50632619D01*
X119499999Y-50632619D02*
X119357142Y-50585000D01*
X119357142Y-50585000D02*
X119261904Y-50489761D01*
X119261904Y-50489761D02*
X119214285Y-50394523D01*
X119214285Y-50394523D02*
X119166666Y-50204047D01*
X119166666Y-50204047D02*
X119166666Y-50061190D01*
X119166666Y-50061190D02*
X119214285Y-49870714D01*
X119214285Y-49870714D02*
X119261904Y-49775476D01*
X119261904Y-49775476D02*
X119357142Y-49680238D01*
X119357142Y-49680238D02*
X119499999Y-49632619D01*
X119499999Y-49632619D02*
X119595237Y-49632619D01*
X119595237Y-49632619D02*
X119738094Y-49680238D01*
X119738094Y-49680238D02*
X119785713Y-49727857D01*
X120119047Y-49632619D02*
X120738094Y-49632619D01*
X120738094Y-49632619D02*
X120404761Y-50013571D01*
X120404761Y-50013571D02*
X120547618Y-50013571D01*
X120547618Y-50013571D02*
X120642856Y-50061190D01*
X120642856Y-50061190D02*
X120690475Y-50108809D01*
X120690475Y-50108809D02*
X120738094Y-50204047D01*
X120738094Y-50204047D02*
X120738094Y-50442142D01*
X120738094Y-50442142D02*
X120690475Y-50537380D01*
X120690475Y-50537380D02*
X120642856Y-50585000D01*
X120642856Y-50585000D02*
X120547618Y-50632619D01*
X120547618Y-50632619D02*
X120261904Y-50632619D01*
X120261904Y-50632619D02*
X120166666Y-50585000D01*
X120166666Y-50585000D02*
X120119047Y-50537380D01*
X121119047Y-49727857D02*
X121166666Y-49680238D01*
X121166666Y-49680238D02*
X121261904Y-49632619D01*
X121261904Y-49632619D02*
X121499999Y-49632619D01*
X121499999Y-49632619D02*
X121595237Y-49680238D01*
X121595237Y-49680238D02*
X121642856Y-49727857D01*
X121642856Y-49727857D02*
X121690475Y-49823095D01*
X121690475Y-49823095D02*
X121690475Y-49918333D01*
X121690475Y-49918333D02*
X121642856Y-50061190D01*
X121642856Y-50061190D02*
X121071428Y-50632619D01*
X121071428Y-50632619D02*
X121690475Y-50632619D01*
X122119047Y-50632619D02*
X122119047Y-49632619D01*
X122119047Y-49632619D02*
X122452380Y-50346904D01*
X122452380Y-50346904D02*
X122785713Y-49632619D01*
X122785713Y-49632619D02*
X122785713Y-50632619D01*
X123166666Y-49632619D02*
X123833332Y-50632619D01*
X123833332Y-49632619D02*
X123166666Y-50632619D01*
X124738094Y-50632619D02*
X124166666Y-50632619D01*
X124452380Y-50632619D02*
X124452380Y-49632619D01*
X124452380Y-49632619D02*
X124357142Y-49775476D01*
X124357142Y-49775476D02*
X124261904Y-49870714D01*
X124261904Y-49870714D02*
X124166666Y-49918333D01*
X125071428Y-49632619D02*
X125738094Y-49632619D01*
X125738094Y-49632619D02*
X125309523Y-50632619D01*
X126309523Y-49632619D02*
X126404761Y-49632619D01*
X126404761Y-49632619D02*
X126499999Y-49680238D01*
X126499999Y-49680238D02*
X126547618Y-49727857D01*
X126547618Y-49727857D02*
X126595237Y-49823095D01*
X126595237Y-49823095D02*
X126642856Y-50013571D01*
X126642856Y-50013571D02*
X126642856Y-50251666D01*
X126642856Y-50251666D02*
X126595237Y-50442142D01*
X126595237Y-50442142D02*
X126547618Y-50537380D01*
X126547618Y-50537380D02*
X126499999Y-50585000D01*
X126499999Y-50585000D02*
X126404761Y-50632619D01*
X126404761Y-50632619D02*
X126309523Y-50632619D01*
X126309523Y-50632619D02*
X126214285Y-50585000D01*
X126214285Y-50585000D02*
X126166666Y-50537380D01*
X126166666Y-50537380D02*
X126119047Y-50442142D01*
X126119047Y-50442142D02*
X126071428Y-50251666D01*
X126071428Y-50251666D02*
X126071428Y-50013571D01*
X126071428Y-50013571D02*
X126119047Y-49823095D01*
X126119047Y-49823095D02*
X126166666Y-49727857D01*
X126166666Y-49727857D02*
X126214285Y-49680238D01*
X126214285Y-49680238D02*
X126309523Y-49632619D01*
X127404761Y-50108809D02*
X127071428Y-50108809D01*
X127071428Y-50632619D02*
X127071428Y-49632619D01*
X127071428Y-49632619D02*
X127547618Y-49632619D01*
X127880952Y-49727857D02*
X127928571Y-49680238D01*
X127928571Y-49680238D02*
X128023809Y-49632619D01*
X128023809Y-49632619D02*
X128261904Y-49632619D01*
X128261904Y-49632619D02*
X128357142Y-49680238D01*
X128357142Y-49680238D02*
X128404761Y-49727857D01*
X128404761Y-49727857D02*
X128452380Y-49823095D01*
X128452380Y-49823095D02*
X128452380Y-49918333D01*
X128452380Y-49918333D02*
X128404761Y-50061190D01*
X128404761Y-50061190D02*
X127833333Y-50632619D01*
X127833333Y-50632619D02*
X128452380Y-50632619D01*
X129357142Y-49632619D02*
X128880952Y-49632619D01*
X128880952Y-49632619D02*
X128833333Y-50108809D01*
X128833333Y-50108809D02*
X128880952Y-50061190D01*
X128880952Y-50061190D02*
X128976190Y-50013571D01*
X128976190Y-50013571D02*
X129214285Y-50013571D01*
X129214285Y-50013571D02*
X129309523Y-50061190D01*
X129309523Y-50061190D02*
X129357142Y-50108809D01*
X129357142Y-50108809D02*
X129404761Y-50204047D01*
X129404761Y-50204047D02*
X129404761Y-50442142D01*
X129404761Y-50442142D02*
X129357142Y-50537380D01*
X129357142Y-50537380D02*
X129309523Y-50585000D01*
X129309523Y-50585000D02*
X129214285Y-50632619D01*
X129214285Y-50632619D02*
X128976190Y-50632619D01*
X128976190Y-50632619D02*
X128880952Y-50585000D01*
X128880952Y-50585000D02*
X128833333Y-50537380D01*
X130261904Y-49632619D02*
X130071428Y-49632619D01*
X130071428Y-49632619D02*
X129976190Y-49680238D01*
X129976190Y-49680238D02*
X129928571Y-49727857D01*
X129928571Y-49727857D02*
X129833333Y-49870714D01*
X129833333Y-49870714D02*
X129785714Y-50061190D01*
X129785714Y-50061190D02*
X129785714Y-50442142D01*
X129785714Y-50442142D02*
X129833333Y-50537380D01*
X129833333Y-50537380D02*
X129880952Y-50585000D01*
X129880952Y-50585000D02*
X129976190Y-50632619D01*
X129976190Y-50632619D02*
X130166666Y-50632619D01*
X130166666Y-50632619D02*
X130261904Y-50585000D01*
X130261904Y-50585000D02*
X130309523Y-50537380D01*
X130309523Y-50537380D02*
X130357142Y-50442142D01*
X130357142Y-50442142D02*
X130357142Y-50204047D01*
X130357142Y-50204047D02*
X130309523Y-50108809D01*
X130309523Y-50108809D02*
X130261904Y-50061190D01*
X130261904Y-50061190D02*
X130166666Y-50013571D01*
X130166666Y-50013571D02*
X129976190Y-50013571D01*
X129976190Y-50013571D02*
X129880952Y-50061190D01*
X129880952Y-50061190D02*
X129833333Y-50108809D01*
X129833333Y-50108809D02*
X129785714Y-50204047D01*
X131119047Y-50108809D02*
X131261904Y-50156428D01*
X131261904Y-50156428D02*
X131309523Y-50204047D01*
X131309523Y-50204047D02*
X131357142Y-50299285D01*
X131357142Y-50299285D02*
X131357142Y-50442142D01*
X131357142Y-50442142D02*
X131309523Y-50537380D01*
X131309523Y-50537380D02*
X131261904Y-50585000D01*
X131261904Y-50585000D02*
X131166666Y-50632619D01*
X131166666Y-50632619D02*
X130785714Y-50632619D01*
X130785714Y-50632619D02*
X130785714Y-49632619D01*
X130785714Y-49632619D02*
X131119047Y-49632619D01*
X131119047Y-49632619D02*
X131214285Y-49680238D01*
X131214285Y-49680238D02*
X131261904Y-49727857D01*
X131261904Y-49727857D02*
X131309523Y-49823095D01*
X131309523Y-49823095D02*
X131309523Y-49918333D01*
X131309523Y-49918333D02*
X131261904Y-50013571D01*
X131261904Y-50013571D02*
X131214285Y-50061190D01*
X131214285Y-50061190D02*
X131119047Y-50108809D01*
X131119047Y-50108809D02*
X130785714Y-50108809D01*
X132309523Y-50632619D02*
X131738095Y-50632619D01*
X132023809Y-50632619D02*
X132023809Y-49632619D01*
X132023809Y-49632619D02*
X131928571Y-49775476D01*
X131928571Y-49775476D02*
X131833333Y-49870714D01*
X131833333Y-49870714D02*
X131738095Y-49918333D01*
%TO.C,R4*%
X107833333Y-54542619D02*
X107500000Y-54066428D01*
X107261905Y-54542619D02*
X107261905Y-53542619D01*
X107261905Y-53542619D02*
X107642857Y-53542619D01*
X107642857Y-53542619D02*
X107738095Y-53590238D01*
X107738095Y-53590238D02*
X107785714Y-53637857D01*
X107785714Y-53637857D02*
X107833333Y-53733095D01*
X107833333Y-53733095D02*
X107833333Y-53875952D01*
X107833333Y-53875952D02*
X107785714Y-53971190D01*
X107785714Y-53971190D02*
X107738095Y-54018809D01*
X107738095Y-54018809D02*
X107642857Y-54066428D01*
X107642857Y-54066428D02*
X107261905Y-54066428D01*
X108690476Y-53875952D02*
X108690476Y-54542619D01*
X108452381Y-53495000D02*
X108214286Y-54209285D01*
X108214286Y-54209285D02*
X108833333Y-54209285D01*
%TO.C,U1*%
X142698095Y-92952619D02*
X142698095Y-93762142D01*
X142698095Y-93762142D02*
X142745714Y-93857380D01*
X142745714Y-93857380D02*
X142793333Y-93905000D01*
X142793333Y-93905000D02*
X142888571Y-93952619D01*
X142888571Y-93952619D02*
X143079047Y-93952619D01*
X143079047Y-93952619D02*
X143174285Y-93905000D01*
X143174285Y-93905000D02*
X143221904Y-93857380D01*
X143221904Y-93857380D02*
X143269523Y-93762142D01*
X143269523Y-93762142D02*
X143269523Y-92952619D01*
X144269523Y-93952619D02*
X143698095Y-93952619D01*
X143983809Y-93952619D02*
X143983809Y-92952619D01*
X143983809Y-92952619D02*
X143888571Y-93095476D01*
X143888571Y-93095476D02*
X143793333Y-93190714D01*
X143793333Y-93190714D02*
X143698095Y-93238333D01*
%TO.C,C2*%
X135583333Y-70947380D02*
X135535714Y-70995000D01*
X135535714Y-70995000D02*
X135392857Y-71042619D01*
X135392857Y-71042619D02*
X135297619Y-71042619D01*
X135297619Y-71042619D02*
X135154762Y-70995000D01*
X135154762Y-70995000D02*
X135059524Y-70899761D01*
X135059524Y-70899761D02*
X135011905Y-70804523D01*
X135011905Y-70804523D02*
X134964286Y-70614047D01*
X134964286Y-70614047D02*
X134964286Y-70471190D01*
X134964286Y-70471190D02*
X135011905Y-70280714D01*
X135011905Y-70280714D02*
X135059524Y-70185476D01*
X135059524Y-70185476D02*
X135154762Y-70090238D01*
X135154762Y-70090238D02*
X135297619Y-70042619D01*
X135297619Y-70042619D02*
X135392857Y-70042619D01*
X135392857Y-70042619D02*
X135535714Y-70090238D01*
X135535714Y-70090238D02*
X135583333Y-70137857D01*
X135964286Y-70137857D02*
X136011905Y-70090238D01*
X136011905Y-70090238D02*
X136107143Y-70042619D01*
X136107143Y-70042619D02*
X136345238Y-70042619D01*
X136345238Y-70042619D02*
X136440476Y-70090238D01*
X136440476Y-70090238D02*
X136488095Y-70137857D01*
X136488095Y-70137857D02*
X136535714Y-70233095D01*
X136535714Y-70233095D02*
X136535714Y-70328333D01*
X136535714Y-70328333D02*
X136488095Y-70471190D01*
X136488095Y-70471190D02*
X135916667Y-71042619D01*
X135916667Y-71042619D02*
X136535714Y-71042619D01*
D13*
%TO.C,J4*%
X145260000Y-61170000D02*
X146590000Y-61170000D01*
X145260000Y-62500000D02*
X145260000Y-61170000D01*
X145260000Y-63770000D02*
X145260000Y-91770000D01*
X145260000Y-63770000D02*
X147920000Y-63770000D01*
X145260000Y-91770000D02*
X147920000Y-91770000D01*
X147920000Y-63770000D02*
X147920000Y-91770000D01*
%TO.C,R2*%
X112340000Y-75800000D02*
X113290000Y-75800000D01*
X113290000Y-74880000D02*
X113290000Y-76720000D01*
X113290000Y-76720000D02*
X117130000Y-76720000D01*
X117130000Y-74880000D02*
X113290000Y-74880000D01*
X117130000Y-76720000D02*
X117130000Y-74880000D01*
X118080000Y-75800000D02*
X117130000Y-75800000D01*
%TO.C,R1*%
X112320000Y-78000000D02*
X113270000Y-78000000D01*
X113270000Y-77080000D02*
X113270000Y-78920000D01*
X113270000Y-78920000D02*
X117110000Y-78920000D01*
X117110000Y-77080000D02*
X113270000Y-77080000D01*
X117110000Y-78920000D02*
X117110000Y-77080000D01*
X118060000Y-78000000D02*
X117110000Y-78000000D01*
D12*
%TO.C,SW1*%
X114540000Y-88000000D02*
X108540000Y-88000000D01*
X108540000Y-88000000D02*
X108540000Y-82000000D01*
X108540000Y-82000000D02*
X114540000Y-82000000D01*
X114540000Y-82000000D02*
X114540000Y-88000000D01*
D13*
%TO.C,R3*%
X109130000Y-81000000D02*
X110080000Y-81000000D01*
X110080000Y-80080000D02*
X110080000Y-81920000D01*
X110080000Y-81920000D02*
X113920000Y-81920000D01*
X113920000Y-80080000D02*
X110080000Y-80080000D01*
X113920000Y-81920000D02*
X113920000Y-80080000D01*
X114870000Y-81000000D02*
X113920000Y-81000000D01*
%TO.C,J1*%
X104730000Y-98830000D02*
X117490000Y-98830000D01*
X104730000Y-98830000D02*
X104730000Y-96170000D01*
X117490000Y-98830000D02*
X117490000Y-96170000D01*
X102130000Y-97500000D02*
X102130000Y-96170000D01*
X102130000Y-96170000D02*
X103460000Y-96170000D01*
X104730000Y-96170000D02*
X117490000Y-96170000D01*
D12*
%TO.C,SW2*%
X113400000Y-53200000D02*
X119400000Y-53200000D01*
X119400000Y-53200000D02*
X119400000Y-59200000D01*
X119400000Y-59200000D02*
X113400000Y-59200000D01*
X113400000Y-59200000D02*
X113400000Y-53200000D01*
D13*
%TO.C,C4*%
X124960000Y-94000000D02*
X124270000Y-94000000D01*
X124270000Y-95420000D02*
X124270000Y-92580000D01*
X124270000Y-92580000D02*
X120230000Y-92580000D01*
X120230000Y-95420000D02*
X124270000Y-95420000D01*
X120230000Y-92580000D02*
X120230000Y-95420000D01*
X119540000Y-94000000D02*
X120230000Y-94000000D01*
%TO.C,J2*%
X132845000Y-98830000D02*
X132845000Y-97500000D01*
X134175000Y-98830000D02*
X132845000Y-98830000D01*
X135445000Y-98830000D02*
X138045000Y-98830000D01*
X135445000Y-98830000D02*
X135445000Y-96170000D01*
X138045000Y-98830000D02*
X138045000Y-96170000D01*
X135445000Y-96170000D02*
X138045000Y-96170000D01*
%TO.C,D3*%
X131540000Y-90990000D02*
X132271000Y-90990000D01*
X131540000Y-93010000D02*
X132271000Y-93010000D01*
X133730000Y-90990000D02*
X133740000Y-90990000D01*
X133730000Y-93010000D02*
X133740000Y-93010000D01*
X133740000Y-90990000D02*
X133740000Y-91175000D01*
X133740000Y-92825000D02*
X133740000Y-93010000D01*
%TO.C,C3*%
X135640000Y-53600000D02*
X136330000Y-53600000D01*
X136330000Y-52180000D02*
X136330000Y-55020000D01*
X136330000Y-55020000D02*
X140370000Y-55020000D01*
X140370000Y-52180000D02*
X136330000Y-52180000D01*
X140370000Y-55020000D02*
X140370000Y-52180000D01*
X141060000Y-53600000D02*
X140370000Y-53600000D01*
%TO.C,C1*%
X116560000Y-71400000D02*
X115870000Y-71400000D01*
X115870000Y-72820000D02*
X115870000Y-69980000D01*
X115870000Y-69980000D02*
X111830000Y-69980000D01*
X111830000Y-72820000D02*
X115870000Y-72820000D01*
X111830000Y-69980000D02*
X111830000Y-72820000D01*
X111140000Y-71400000D02*
X111830000Y-71400000D01*
%TO.C,SW3*%
X121720000Y-98830000D02*
X121720000Y-97500000D01*
X123050000Y-98830000D02*
X121720000Y-98830000D01*
X124320000Y-98830000D02*
X129460000Y-98830000D01*
X124320000Y-98830000D02*
X124320000Y-96170000D01*
X129460000Y-98830000D02*
X129460000Y-96170000D01*
X124320000Y-96170000D02*
X129460000Y-96170000D01*
%TO.C,D1*%
X108170000Y-79010000D02*
X107439000Y-79010000D01*
X108170000Y-76990000D02*
X107439000Y-76990000D01*
X105980000Y-79010000D02*
X105970000Y-79010000D01*
X105980000Y-76990000D02*
X105970000Y-76990000D01*
X105970000Y-79010000D02*
X105970000Y-78825000D01*
X105970000Y-77175000D02*
X105970000Y-76990000D01*
%TO.C,J3*%
X102080000Y-61170000D02*
X103410000Y-61170000D01*
X102080000Y-62500000D02*
X102080000Y-61170000D01*
X102080000Y-63770000D02*
X102080000Y-91770000D01*
X102080000Y-63770000D02*
X104740000Y-63770000D01*
X102080000Y-91770000D02*
X104740000Y-91770000D01*
X104740000Y-63770000D02*
X104740000Y-91770000D01*
%TO.C,C6*%
X137140000Y-89150000D02*
X137830000Y-89150000D01*
X137830000Y-87730000D02*
X137830000Y-90570000D01*
X137830000Y-90570000D02*
X141870000Y-90570000D01*
X141870000Y-87730000D02*
X137830000Y-87730000D01*
X141870000Y-90570000D02*
X141870000Y-87730000D01*
X142560000Y-89150000D02*
X141870000Y-89150000D01*
%TO.C,C5*%
X137140000Y-92600000D02*
X137830000Y-92600000D01*
X137830000Y-91180000D02*
X137830000Y-94020000D01*
X137830000Y-94020000D02*
X141870000Y-94020000D01*
X141870000Y-91180000D02*
X137830000Y-91180000D01*
X141870000Y-94020000D02*
X141870000Y-91180000D01*
X142560000Y-92600000D02*
X141870000Y-92600000D01*
%TO.C,R5*%
X115060000Y-94000000D02*
X114110000Y-94000000D01*
X114110000Y-94920000D02*
X114110000Y-93080000D01*
X114110000Y-93080000D02*
X110270000Y-93080000D01*
X110270000Y-94920000D02*
X114110000Y-94920000D01*
X110270000Y-93080000D02*
X110270000Y-94920000D01*
X109320000Y-94000000D02*
X110270000Y-94000000D01*
%TO.C,D2*%
X108120000Y-76410000D02*
X107389000Y-76410000D01*
X108120000Y-74390000D02*
X107389000Y-74390000D01*
X105930000Y-76410000D02*
X105920000Y-76410000D01*
X105930000Y-74390000D02*
X105920000Y-74390000D01*
X105920000Y-76410000D02*
X105920000Y-76225000D01*
X105920000Y-74575000D02*
X105920000Y-74390000D01*
%TO.C,PIC32MX170F256B1*%
X122350000Y-51170000D02*
X122350000Y-86850000D01*
X122350000Y-86850000D02*
X127650000Y-86850000D01*
X124000000Y-51170000D02*
X122350000Y-51170000D01*
X127650000Y-51170000D02*
X126000000Y-51170000D01*
X127650000Y-86850000D02*
X127650000Y-51170000D01*
X124000000Y-51170000D02*
G75*
G03*
X126000000Y-51170000I1000000J0D01*
G01*
%TO.C,R4*%
X105130000Y-56000000D02*
X106080000Y-56000000D01*
X106080000Y-55080000D02*
X106080000Y-56920000D01*
X106080000Y-56920000D02*
X109920000Y-56920000D01*
X109920000Y-55080000D02*
X106080000Y-55080000D01*
X109920000Y-56920000D02*
X109920000Y-55080000D01*
X110870000Y-56000000D02*
X109920000Y-56000000D01*
%TO.C,U1*%
X141660000Y-98900000D02*
X145260000Y-98900000D01*
X143460000Y-94450001D02*
G75*
G03*
X141103601Y-95951193I0J-2599999D01*
G01*
X141135817Y-98172795D02*
G75*
G03*
X141660001Y-98899999I2324183J1122795D01*
G01*
X145816400Y-95951193D02*
G75*
G03*
X143460000Y-94450000I-2356400J-1098807D01*
G01*
X145259999Y-98899999D02*
G75*
G03*
X145784183Y-98172795I-1799999J1849999D01*
G01*
%TO.C,C2*%
X133040000Y-73000000D02*
X133730000Y-73000000D01*
X133730000Y-71580000D02*
X133730000Y-74420000D01*
X133730000Y-74420000D02*
X137770000Y-74420000D01*
X137770000Y-71580000D02*
X133730000Y-71580000D01*
X137770000Y-74420000D02*
X137770000Y-71580000D01*
X138460000Y-73000000D02*
X137770000Y-73000000D01*
%TD*%
M02*
