%TF.GenerationSoftware,KiCad,Pcbnew,7.0.1*%
%TF.CreationDate,2023-04-20T16:33:22-05:00*%
%TF.ProjectId,pic32mx,70696333-326d-4782-9e6b-696361645f70,rev?*%
%TF.SameCoordinates,Original*%
%TF.FileFunction,Copper,L1,Top*%
%TF.FilePolarity,Positive*%
%FSLAX46Y46*%
G04 Gerber Fmt 4.6, Leading zero omitted, Abs format (unit mm)*
G04 Created by KiCad (PCBNEW 7.0.1) date 2023-04-20 16:33:22*
%MOMM*%
%LPD*%
G01*
G04 APERTURE LIST*
%TA.AperFunction,ComponentPad*%
%ADD10R,1.700000X1.700000*%
%TD*%
%TA.AperFunction,ComponentPad*%
%ADD11O,1.700000X1.700000*%
%TD*%
%TA.AperFunction,ComponentPad*%
%ADD12C,1.400000*%
%TD*%
%TA.AperFunction,ComponentPad*%
%ADD13O,1.400000X1.400000*%
%TD*%
%TA.AperFunction,ComponentPad*%
%ADD14C,1.524000*%
%TD*%
%TA.AperFunction,ComponentPad*%
%ADD15C,1.600000*%
%TD*%
%TA.AperFunction,ComponentPad*%
%ADD16O,1.600000X1.600000*%
%TD*%
%TA.AperFunction,ComponentPad*%
%ADD17R,1.800000X1.800000*%
%TD*%
%TA.AperFunction,ComponentPad*%
%ADD18C,1.800000*%
%TD*%
%TA.AperFunction,ComponentPad*%
%ADD19R,1.600000X1.600000*%
%TD*%
%TA.AperFunction,ComponentPad*%
%ADD20R,1.500000X1.500000*%
%TD*%
%TA.AperFunction,ComponentPad*%
%ADD21C,1.500000*%
%TD*%
%TA.AperFunction,ViaPad*%
%ADD22C,0.800000*%
%TD*%
%TA.AperFunction,Conductor*%
%ADD23C,0.250000*%
%TD*%
G04 APERTURE END LIST*
D10*
%TO.P,J4,1,Pin_1*%
%TO.N,/B15*%
X146590000Y-62500000D03*
D11*
%TO.P,J4,2,Pin_2*%
%TO.N,/B14*%
X146590000Y-65040000D03*
%TO.P,J4,3,Pin_3*%
%TO.N,/B13*%
X146590000Y-67580000D03*
%TO.P,J4,4,Pin_4*%
%TO.N,/B12*%
X146590000Y-70120000D03*
%TO.P,J4,5,Pin_5*%
%TO.N,/B11*%
X146590000Y-72660000D03*
%TO.P,J4,6,Pin_6*%
%TO.N,/B10*%
X146590000Y-75200000D03*
%TO.P,J4,7,Pin_7*%
%TO.N,/B9*%
X146590000Y-77740000D03*
%TO.P,J4,8,Pin_8*%
%TO.N,/B8*%
X146590000Y-80280000D03*
%TO.P,J4,9,Pin_9*%
%TO.N,/B7*%
X146590000Y-82820000D03*
%TO.P,J4,10,Pin_10*%
%TO.N,/Vin*%
X146590000Y-85360000D03*
%TO.P,J4,11,Pin_11*%
%TO.N,+3.3V*%
X146590000Y-87900000D03*
%TO.P,J4,12,Pin_12*%
%TO.N,GND*%
X146590000Y-90440000D03*
%TD*%
D12*
%TO.P,R2,1*%
%TO.N,Net-(D2-K)*%
X111400000Y-75800000D03*
D13*
%TO.P,R2,2*%
%TO.N,/GREEN*%
X119020000Y-75800000D03*
%TD*%
D12*
%TO.P,R1,1*%
%TO.N,Net-(D1-K)*%
X111380000Y-78000000D03*
D13*
%TO.P,R1,2*%
%TO.N,/YELLOW*%
X119000000Y-78000000D03*
%TD*%
D14*
%TO.P,SW1,1,1*%
%TO.N,GND*%
X109000000Y-85000000D03*
%TO.P,SW1,2,2*%
%TO.N,/USER*%
X114080000Y-85000000D03*
%TD*%
D12*
%TO.P,R3,1*%
%TO.N,+3.3V*%
X108190000Y-81000000D03*
D13*
%TO.P,R3,2*%
%TO.N,/USER*%
X115810000Y-81000000D03*
%TD*%
D10*
%TO.P,J1,1,Pin_1*%
%TO.N,unconnected-(J1-Pin_1-Pad1)*%
X103460000Y-97500000D03*
D11*
%TO.P,J1,2,Pin_2*%
%TO.N,/U1TX*%
X106000000Y-97500000D03*
%TO.P,J1,3,Pin_3*%
%TO.N,/U1RX*%
X108540000Y-97500000D03*
%TO.P,J1,4,Pin_4*%
%TO.N,+5V*%
X111080000Y-97500000D03*
%TO.P,J1,5,Pin_5*%
%TO.N,unconnected-(J1-Pin_5-Pad5)*%
X113620000Y-97500000D03*
%TO.P,J1,6,Pin_6*%
%TO.N,GND*%
X116160000Y-97500000D03*
%TD*%
D14*
%TO.P,SW2,1,1*%
%TO.N,GND*%
X118940000Y-56200000D03*
%TO.P,SW2,2,2*%
%TO.N,/MCLR*%
X113860000Y-56200000D03*
%TD*%
D15*
%TO.P,C4,1*%
%TO.N,Net-(SW3-B)*%
X126000000Y-94000000D03*
D16*
%TO.P,C4,2*%
%TO.N,GND*%
X118500000Y-94000000D03*
%TD*%
D10*
%TO.P,J2,1,Pin_1*%
%TO.N,Net-(J2-Pin_1)*%
X134175000Y-97500000D03*
D11*
%TO.P,J2,2,Pin_2*%
%TO.N,GND*%
X136715000Y-97500000D03*
%TD*%
D17*
%TO.P,D3,1,K*%
%TO.N,Net-(D3-K)*%
X130460000Y-92000000D03*
D18*
%TO.P,D3,2,A*%
%TO.N,+3.3V*%
X133000000Y-92000000D03*
%TD*%
D15*
%TO.P,C3,1*%
%TO.N,+3.3V*%
X134600000Y-53600000D03*
D16*
%TO.P,C3,2*%
%TO.N,GND*%
X142100000Y-53600000D03*
%TD*%
D15*
%TO.P,C1,1*%
%TO.N,+3.3V*%
X117600000Y-71400000D03*
D16*
%TO.P,C1,2*%
%TO.N,GND*%
X110100000Y-71400000D03*
%TD*%
D10*
%TO.P,SW3,1,A*%
%TO.N,+5V*%
X123050000Y-97500000D03*
D11*
%TO.P,SW3,2,B*%
%TO.N,Net-(SW3-B)*%
X125590000Y-97500000D03*
%TO.P,SW3,3,C*%
%TO.N,Net-(J2-Pin_1)*%
X128130000Y-97500000D03*
%TD*%
D17*
%TO.P,D1,1,K*%
%TO.N,Net-(D1-K)*%
X109250000Y-78000000D03*
D18*
%TO.P,D1,2,A*%
%TO.N,+3.3V*%
X106710000Y-78000000D03*
%TD*%
D10*
%TO.P,J3,1,Pin_1*%
%TO.N,/A0*%
X103410000Y-62500000D03*
D11*
%TO.P,J3,2,Pin_2*%
%TO.N,/A1*%
X103410000Y-65040000D03*
%TO.P,J3,3,Pin_3*%
%TO.N,/B0*%
X103410000Y-67580000D03*
%TO.P,J3,4,Pin_4*%
%TO.N,/B1*%
X103410000Y-70120000D03*
%TO.P,J3,5,Pin_5*%
%TO.N,/B2*%
X103410000Y-72660000D03*
%TO.P,J3,6,Pin_6*%
%TO.N,/A3*%
X103410000Y-75200000D03*
%TO.P,J3,7,Pin_7*%
%TO.N,/GREEN*%
X103410000Y-77740000D03*
%TO.P,J3,8,Pin_8*%
%TO.N,/YELLOW*%
X103410000Y-80280000D03*
%TO.P,J3,9,Pin_9*%
%TO.N,/B6*%
X103410000Y-82820000D03*
%TO.P,J3,10,Pin_10*%
%TO.N,/Vin*%
X103410000Y-85360000D03*
%TO.P,J3,11,Pin_11*%
%TO.N,+3.3V*%
X103410000Y-87900000D03*
%TO.P,J3,12,Pin_12*%
%TO.N,GND*%
X103410000Y-90440000D03*
%TD*%
D15*
%TO.P,C6,1*%
%TO.N,+3.3V*%
X136100000Y-89150000D03*
D16*
%TO.P,C6,2*%
%TO.N,GND*%
X143600000Y-89150000D03*
%TD*%
D15*
%TO.P,C5,1*%
%TO.N,+3.3V*%
X136100000Y-92600000D03*
D16*
%TO.P,C5,2*%
%TO.N,GND*%
X143600000Y-92600000D03*
%TD*%
D12*
%TO.P,R5,1*%
%TO.N,Net-(D3-K)*%
X116000000Y-94000000D03*
D13*
%TO.P,R5,2*%
%TO.N,GND*%
X108380000Y-94000000D03*
%TD*%
D17*
%TO.P,D2,1,K*%
%TO.N,Net-(D2-K)*%
X109200000Y-75400000D03*
D18*
%TO.P,D2,2,A*%
%TO.N,+3.3V*%
X106660000Y-75400000D03*
%TD*%
D19*
%TO.P,PIC32MX170F256B1,1,MCLR*%
%TO.N,/MCLR*%
X121190000Y-52500000D03*
D16*
%TO.P,PIC32MX170F256B1,2,A0*%
%TO.N,/A0*%
X121190000Y-55040000D03*
%TO.P,PIC32MX170F256B1,3,A1*%
%TO.N,/A1*%
X121190000Y-57580000D03*
%TO.P,PIC32MX170F256B1,4,B0*%
%TO.N,/B0*%
X121190000Y-60120000D03*
%TO.P,PIC32MX170F256B1,5,B1*%
%TO.N,/B1*%
X121190000Y-62660000D03*
%TO.P,PIC32MX170F256B1,6,B2*%
%TO.N,/B2*%
X121190000Y-65200000D03*
%TO.P,PIC32MX170F256B1,7,B3*%
%TO.N,/U1TX*%
X121190000Y-67740000D03*
%TO.P,PIC32MX170F256B1,8,VSS*%
%TO.N,GND*%
X121190000Y-70280000D03*
%TO.P,PIC32MX170F256B1,9,A2*%
%TO.N,/U1RX*%
X121190000Y-72820000D03*
%TO.P,PIC32MX170F256B1,10,A3*%
%TO.N,/A3*%
X121190000Y-75360000D03*
%TO.P,PIC32MX170F256B1,11,B4*%
%TO.N,/GREEN*%
X121190000Y-77900000D03*
%TO.P,PIC32MX170F256B1,12,A4*%
%TO.N,/USER*%
X121190000Y-80440000D03*
%TO.P,PIC32MX170F256B1,13,Vdd*%
%TO.N,+3.3V*%
X121190000Y-82980000D03*
%TO.P,PIC32MX170F256B1,14,B5*%
%TO.N,/YELLOW*%
X121190000Y-85520000D03*
%TO.P,PIC32MX170F256B1,15,B6*%
%TO.N,/B6*%
X128810000Y-85520000D03*
%TO.P,PIC32MX170F256B1,16,B7*%
%TO.N,/B7*%
X128810000Y-82980000D03*
%TO.P,PIC32MX170F256B1,17,B8*%
%TO.N,/B8*%
X128810000Y-80440000D03*
%TO.P,PIC32MX170F256B1,18,B9*%
%TO.N,/B9*%
X128810000Y-77900000D03*
%TO.P,PIC32MX170F256B1,19,VSS*%
%TO.N,GND*%
X128810000Y-75360000D03*
%TO.P,PIC32MX170F256B1,20,Vcap*%
%TO.N,Net-(PIC32MX170F256B1-Vcap)*%
X128810000Y-72820000D03*
%TO.P,PIC32MX170F256B1,21,B10*%
%TO.N,/B10*%
X128810000Y-70280000D03*
%TO.P,PIC32MX170F256B1,22,B11*%
%TO.N,/B11*%
X128810000Y-67740000D03*
%TO.P,PIC32MX170F256B1,23,B12*%
%TO.N,/B12*%
X128810000Y-65200000D03*
%TO.P,PIC32MX170F256B1,24,B13*%
%TO.N,/B13*%
X128810000Y-62660000D03*
%TO.P,PIC32MX170F256B1,25,B14*%
%TO.N,/B14*%
X128810000Y-60120000D03*
%TO.P,PIC32MX170F256B1,26,B15*%
%TO.N,/B15*%
X128810000Y-57580000D03*
%TO.P,PIC32MX170F256B1,27,AVSS*%
%TO.N,GND*%
X128810000Y-55040000D03*
%TO.P,PIC32MX170F256B1,28,AVdd*%
%TO.N,+3.3V*%
X128810000Y-52500000D03*
%TD*%
D12*
%TO.P,R4,1*%
%TO.N,+3.3V*%
X104190000Y-56000000D03*
D13*
%TO.P,R4,2*%
%TO.N,/MCLR*%
X111810000Y-56000000D03*
%TD*%
D20*
%TO.P,U1,1,VO*%
%TO.N,+3.3V*%
X140920000Y-97050000D03*
D21*
%TO.P,U1,2,GND*%
%TO.N,GND*%
X143460000Y-97050000D03*
%TO.P,U1,3,VI*%
%TO.N,Net-(SW3-B)*%
X146000000Y-97050000D03*
%TD*%
D15*
%TO.P,C2,1*%
%TO.N,Net-(PIC32MX170F256B1-Vcap)*%
X132000000Y-73000000D03*
D16*
%TO.P,C2,2*%
%TO.N,GND*%
X139500000Y-73000000D03*
%TD*%
D22*
%TO.N,/MCLR*%
X115800000Y-56200000D03*
%TO.N,+3.3V*%
X148800000Y-88000000D03*
X123000000Y-74200000D03*
%TO.N,/A0*%
X117000000Y-57400000D03*
%TO.N,/U1TX*%
X116000000Y-89000000D03*
%TO.N,/U1RX*%
X123000000Y-89000000D03*
%TO.N,/A3*%
X106000000Y-73600000D03*
%TO.N,/YELLOW*%
X119000000Y-79500000D03*
%TO.N,/B6*%
X106000000Y-87000000D03*
%TO.N,Net-(D3-K)*%
X122000000Y-92000000D03*
%TO.N,/Vin*%
X105400000Y-81600000D03*
%TD*%
D23*
%TO.N,/MCLR*%
X117400000Y-53600000D02*
X120000000Y-53600000D01*
X115800000Y-55200000D02*
X117400000Y-53600000D01*
X115800000Y-56200000D02*
X115800000Y-55200000D01*
X120000000Y-53600000D02*
X121100000Y-52500000D01*
%TO.N,+3.3V*%
X109026701Y-98675000D02*
X108053299Y-98675000D01*
X111128299Y-95600000D02*
X109715000Y-97013299D01*
X148800000Y-88000000D02*
X148800000Y-95600000D01*
X106003604Y-95600000D02*
X105000000Y-95600000D01*
X123000000Y-74200000D02*
X122950000Y-74150000D01*
X109715000Y-97013299D02*
X109715000Y-97986701D01*
X101550000Y-93186396D02*
X101550000Y-89760000D01*
X101550000Y-89760000D02*
X103410000Y-87900000D01*
X107365000Y-97986701D02*
X107365000Y-97013299D01*
X120350000Y-74150000D02*
X117600000Y-71400000D01*
X148800000Y-95600000D02*
X111128299Y-95600000D01*
X105000000Y-93450000D02*
X101813604Y-93450000D01*
X101813604Y-93450000D02*
X101550000Y-93186396D01*
X107390951Y-96987347D02*
X106003604Y-95600000D01*
X108053299Y-98675000D02*
X107365000Y-97986701D01*
X122950000Y-74150000D02*
X120350000Y-74150000D01*
X107365000Y-97013299D02*
X107390951Y-96987347D01*
X105000000Y-95600000D02*
X105000000Y-93450000D01*
X109715000Y-97986701D02*
X109026701Y-98675000D01*
%TO.N,GND*%
X139500000Y-73000000D02*
X137140000Y-75360000D01*
X137140000Y-75360000D02*
X128810000Y-75360000D01*
%TO.N,/A0*%
X117000000Y-57400000D02*
X117000000Y-56036396D01*
X117400000Y-55636396D02*
X117400000Y-54600000D01*
X117000000Y-56036396D02*
X117400000Y-55636396D01*
X117840000Y-55040000D02*
X121190000Y-55040000D01*
X117400000Y-54600000D02*
X117840000Y-55040000D01*
%TO.N,/U1TX*%
X122275000Y-88699695D02*
X123800000Y-87174695D01*
X123800000Y-70350000D02*
X121190000Y-67740000D01*
X122000000Y-89000000D02*
X122275000Y-88725000D01*
X122275000Y-88725000D02*
X122275000Y-88699695D01*
X123800000Y-87174695D02*
X123800000Y-70350000D01*
X116000000Y-89000000D02*
X122000000Y-89000000D01*
%TO.N,/U1RX*%
X107000000Y-95960000D02*
X108540000Y-97500000D01*
X122000000Y-90000000D02*
X107000000Y-90000000D01*
X107000000Y-90000000D02*
X107000000Y-95960000D01*
X123000000Y-89000000D02*
X122000000Y-90000000D01*
%TO.N,/A3*%
X110850000Y-74600000D02*
X120430000Y-74600000D01*
X110425000Y-74175000D02*
X110850000Y-74600000D01*
X106575000Y-74175000D02*
X110425000Y-74175000D01*
X120430000Y-74600000D02*
X121190000Y-75360000D01*
X106000000Y-73600000D02*
X106575000Y-74175000D01*
%TO.N,/YELLOW*%
X119000000Y-83330000D02*
X121190000Y-85520000D01*
X119000000Y-79500000D02*
X119000000Y-83330000D01*
%TO.N,/B6*%
X102925000Y-89075000D02*
X103896701Y-89075000D01*
X105000000Y-87971701D02*
X105000000Y-84410000D01*
X102075000Y-89925000D02*
X102925000Y-89075000D01*
X103896701Y-89075000D02*
X105000000Y-87971701D01*
X106000000Y-93000000D02*
X102000000Y-93000000D01*
X106000000Y-87000000D02*
X106000000Y-93000000D01*
X102075000Y-92925000D02*
X102075000Y-89925000D01*
X102000000Y-93000000D02*
X102075000Y-92925000D01*
X105000000Y-84410000D02*
X103410000Y-82820000D01*
%TO.N,Net-(D3-K)*%
X122000000Y-92000000D02*
X118000000Y-92000000D01*
X118000000Y-92000000D02*
X116000000Y-94000000D01*
%TO.N,/Vin*%
X101000000Y-81600000D02*
X101000000Y-99200000D01*
X149525000Y-87525000D02*
X147360000Y-85360000D01*
X145436396Y-99600000D02*
X149525000Y-95511396D01*
X101000000Y-99200000D02*
X101400000Y-99600000D01*
X149525000Y-95511396D02*
X149525000Y-87525000D01*
X101400000Y-99600000D02*
X145436396Y-99600000D01*
X105400000Y-81600000D02*
X101000000Y-81600000D01*
X147360000Y-85360000D02*
X146590000Y-85360000D01*
%TD*%
M02*
